<?xml version="1.0" encoding="UTF-8" standalone="no"?>
<svg xmlns:ffdec="https://www.free-decompiler.com/flash" xmlns:xlink="http://www.w3.org/1999/xlink" ffdec:objectType="shape" height="11.9px" width="15.8px" xmlns="http://www.w3.org/2000/svg">
  <g transform="matrix(1.0, 0.0, 0.0, 1.0, -370.05, -254.85)">
    <path d="M377.05 256.2 L377.05 258.0 371.8 257.0 371.8 258.75 377.05 259.75 377.05 261.5 371.8 260.5 371.8 262.25 377.05 263.25 377.05 265.0 370.05 263.65 370.05 254.85 377.05 256.2 M378.8 256.55 L380.6 256.9 380.6 258.7 382.35 259.0 382.35 260.75 380.6 260.45 380.6 265.75 378.8 265.4 378.8 256.55 M385.85 257.9 L385.85 266.75 384.1 266.4 384.1 262.85 382.35 262.5 382.35 260.75 384.1 261.1 384.1 257.55 385.85 257.9" fill="#ccff00" fill-rule="evenodd" stroke="none"/>
  </g>
</svg>
