<?xml version="1.0" encoding="UTF-8" standalone="no"?>
<svg xmlns:ffdec="https://www.free-decompiler.com/flash" xmlns:xlink="http://www.w3.org/1999/xlink" ffdec:objectType="shape" height="102.65px" width="50.0px" xmlns="http://www.w3.org/2000/svg">
  <g transform="matrix(1.0, 0.0, 0.0, 1.0, -0.65, 115.35)">
    <path d="M0.65 -100.35 L0.65 -115.35 38.55 -115.35 38.55 -100.35 0.65 -100.35" fill="#ff0000" fill-rule="evenodd" stroke="none"/>
    <path d="M38.55 -97.75 L38.55 -82.75 0.65 -82.75 0.65 -97.75 38.55 -97.75" fill="#ff6600" fill-rule="evenodd" stroke="none"/>
    <path d="M0.65 -65.25 L0.65 -80.25 38.55 -80.25 38.55 -65.25 0.65 -65.25" fill="#ff9900" fill-rule="evenodd" stroke="none"/>
    <path d="M0.65 -62.85 L38.55 -62.85 38.55 -47.85 0.65 -47.85 0.65 -62.85 M38.6 -27.75 L38.6 -24.4 50.65 -12.7 0.65 -12.7 0.65 -27.75 38.6 -27.75 M38.55 -45.35 L38.55 -30.35 0.65 -30.35 0.65 -45.35 38.55 -45.35" fill="#ffffff" fill-rule="evenodd" stroke="none"/>
  </g>
</svg>
