<?xml version="1.0" encoding="UTF-8" standalone="no"?>
<svg xmlns:ffdec="https://www.free-decompiler.com/flash" xmlns:xlink="http://www.w3.org/1999/xlink" ffdec:objectType="shape" height="101.45px" width="96.05px" xmlns="http://www.w3.org/2000/svg">
  <g transform="matrix(1.0, 0.0, 0.0, 1.0, 48.35, 51.7)">
    <path d="M32.1 -12.3 L28.4 -5.4 41.1 -3.55 28.85 0.85 25.0 0.15 24.25 -4.15 17.6 -6.45 24.9 -18.4 26.8 -14.3 47.7 -23.8 32.1 -12.3 M31.3 -32.75 L8.0 -10.75 12.05 -28.25 13.85 -23.8 31.3 -32.75 M0.1 -15.3 L-3.95 -30.15 -1.4 -51.7 4.3 -25.7 0.1 -15.3 M26.2 14.85 L39.75 32.95 18.25 21.5 23.35 39.9 12.5 28.85 9.2 32.8 8.75 24.65 8.6 24.65 10.6 20.65 12.85 23.4 12.25 16.1 18.65 15.8 18.55 10.75 23.95 10.75 22.3 3.5 33.15 6.3 27.1 9.45 26.2 14.85 M5.65 18.35 L0.85 18.95 2.0 11.3 5.8 15.25 5.65 18.35 M4.7 28.9 L1.75 37.7 -0.75 30.4 -11.2 49.75 -9.7 26.55 -1.4 19.9 0.2 26.9 3.7 23.75 4.7 28.9 M-8.35 -28.85 L-5.0 -15.55 -19.75 -31.4 -8.35 -28.85 M-27.05 -4.15 L-19.95 -1.9 -28.65 4.05 -48.35 0.5 -31.6 -5.35 -29.3 -11.15 -24.2 -10.5 -27.05 -4.15 M-15.95 -13.05 L-24.2 -16.3 -36.25 -31.4 -19.75 -21.3 -15.95 -13.05 M-8.25 14.85 L-12.8 25.5 -32.25 36.0 -20.0 18.7 -8.25 14.85 M-28.7 9.65 L-15.95 3.45 -21.65 11.7 -21.1 18.05 -24.2 17.5 -28.7 9.65" fill="#ffffff" fill-rule="evenodd" stroke="none"/>
  </g>
</svg>
