<?xml version="1.0" encoding="UTF-8" standalone="no"?>
<svg xmlns:ffdec="https://www.free-decompiler.com/flash" xmlns:xlink="http://www.w3.org/1999/xlink" ffdec:objectType="shape" height="16.55px" width="16.45px" xmlns="http://www.w3.org/2000/svg">
  <g transform="matrix(1.0, 0.0, 0.0, 1.0, 7.65, 8.7)">
    <path d="M-7.65 -0.1 L-6.2 -1.55 -4.25 -0.65 -3.4 1.3 -4.8 2.7 -6.9 2.0 -7.65 -0.1 M1.65 6.4 L0.25 7.85 -1.85 7.1 -2.6 5.0 -1.15 3.6 0.8 4.45 1.65 6.4 M4.4 -3.4 L4.8 -3.55 5.15 -3.4 5.25 -3.05 5.15 -2.7 4.6 -2.15 6.05 -1.5 6.55 -2.0 6.9 -2.15 7.25 -2.0 7.4 -1.65 7.25 -1.3 6.75 -0.8 7.4 0.65 7.95 0.15 Q8.1 0.0 8.3 0.0 8.5 0.0 8.65 0.15 L8.8 0.5 8.65 0.85 6.55 2.95 6.15 3.1 5.8 2.95 5.7 2.6 5.8 2.3 2.55 5.55 1.65 3.6 -0.3 2.7 2.95 -0.55 Q2.8 -0.4 2.65 -0.4 2.4 -0.45 2.3 -0.55 L2.15 -0.9 2.3 -1.25 4.4 -3.4 M1.5 -7.15 L1.85 -7.3 2.2 -7.15 2.35 -6.8 2.2 -6.45 1.7 -5.9 2.35 -4.45 2.9 -5.0 3.25 -5.15 3.6 -5.0 3.75 -4.65 3.6 -4.3 1.45 -2.15 1.1 -2.0 0.75 -2.15 0.6 -2.5 0.75 -2.85 -2.5 0.45 -3.4 -1.5 -5.35 -2.4 -2.1 -5.65 -2.4 -5.55 Q-2.65 -5.55 -2.75 -5.7 L-2.9 -6.05 -2.75 -6.4 -0.65 -8.55 -0.3 -8.7 0.1 -8.55 0.2 -8.2 0.1 -7.85 -0.45 -7.3 1.0 -6.6 1.5 -7.15" fill="#000000" fill-rule="evenodd" stroke="none"/>
  </g>
</svg>
